<?xml version="1.0" encoding="utf-8"?>
<!-- Generator: Adobe Illustrator 21.1.0, SVG Export Plug-In . SVG Version: 6.00 Build 0)  -->
<svg version="1.1" id="Layer_1" xmlns="http://www.w3.org/2000/svg" xmlns:xlink="http://www.w3.org/1999/xlink" x="0px" y="0px"
	 viewBox="0 0 1600 233.7" style="enable-background:new 0 0 1600 233.7;" xml:space="preserve">
<style type="text/css">
	.Arched_x0020_Green{fill:url(#SVGID_1_);stroke:#FFFFFF;stroke-width:0.25;stroke-miterlimit:1;}
	.st0{fill:url(#SVGID_2_);stroke:#CDAB38;stroke-width:0.15;}
	.st1{fill:url(#SVGID_3_);}
	.st2{fill:url(#SVGID_4_);}
	.st3{fill:url(#SVGID_5_);}
	.st4{fill:url(#SVGID_6_);}
	.st5{fill:url(#SVGID_7_);stroke:#CDAB38;stroke-width:0.15;}
	.st6{fill:url(#SVGID_8_);}
	.st7{fill:url(#SVGID_9_);}
	.st8{fill:url(#SVGID_10_);}
	.st9{fill:url(#SVGID_11_);}
	.st10{fill:url(#SVGID_12_);}
</style>
<linearGradient id="SVGID_1_" gradientUnits="userSpaceOnUse" x1="-2397" y1="1243.9902" x2="-2396.293" y2="1243.2831">
	<stop  offset="0" style="stop-color:#1EAB4B"/>
	<stop  offset="0.9831" style="stop-color:#19361A"/>
</linearGradient>
<g>
	<g>
		<linearGradient id="SVGID_2_" gradientUnits="userSpaceOnUse" x1="635.4474" y1="69.8095" x2="635.4474" y2="162.1694">
			<stop  offset="0" style="stop-color:#CDAB38"/>
			<stop  offset="0.135" style="stop-color:#FFFBCC"/>
			<stop  offset="0.2822" style="stop-color:#EED688"/>
			<stop  offset="0.3313" style="stop-color:#ECD382"/>
			<stop  offset="0.3956" style="stop-color:#E5CA72"/>
			<stop  offset="0.4679" style="stop-color:#DABC57"/>
			<stop  offset="0.5337" style="stop-color:#CDAB38"/>
			<stop  offset="0.5786" style="stop-color:#DBC262"/>
			<stop  offset="0.6264" style="stop-color:#E8D688"/>
			<stop  offset="0.6741" style="stop-color:#F2E6A6"/>
			<stop  offset="0.7209" style="stop-color:#F9F2BB"/>
			<stop  offset="0.7666" style="stop-color:#FEF9C8"/>
			<stop  offset="0.8098" style="stop-color:#FFFBCC"/>
			<stop  offset="0.9944" style="stop-color:#CDAB38"/>
		</linearGradient>
		<path class="st0" d="M748.9,86.3v-9.9h-55.2l-31,40V86.5h18.8V76.3h-57.3l-34.8,50.1V76.3h-10.6L522,157.6h13.2l43.1-62.8l0,62.8
			h2.4l43.1-62.8v62.8h57.6v-10h-18.8v-31l31.5,41h54.7v-10.3h-35v-25.9h20.3v-10.1H714V86.3H748.9z M651.8,147.6h-17.2V86.5h17.2
			V147.6z M675.6,116.4L703,81.6v69.9L675.6,116.4z"/>
		<linearGradient id="SVGID_3_" gradientUnits="userSpaceOnUse" x1="580.0631" y1="73.8758" x2="580.0631" y2="162.2383">
			<stop  offset="0" style="stop-color:#525152"/>
			<stop  offset="0.2691" style="stop-color:#424041"/>
			<stop  offset="0.8011" style="stop-color:#181314"/>
			<stop  offset="1" style="stop-color:#070102"/>
		</linearGradient>
		<polygon class="st1" points="585.5,138.6 585.5,80.1 580.7,80.1 529.3,153.8 533.2,153.8 582.1,82.6 582.2,148.9 627.7,82.6 
			627.7,153.8 630.8,153.8 630.8,80.1 626.1,80.1 		"/>
		<linearGradient id="SVGID_4_" gradientUnits="userSpaceOnUse" x1="657.258" y1="73.8759" x2="657.258" y2="162.2385">
			<stop  offset="0" style="stop-color:#525152"/>
			<stop  offset="0.2691" style="stop-color:#424041"/>
			<stop  offset="0.8011" style="stop-color:#181314"/>
			<stop  offset="1" style="stop-color:#070102"/>
		</linearGradient>
		<polygon class="st2" points="658.9,151.4 658.9,82.7 677.7,82.7 677.7,80 636.9,80 636.9,82.7 655.6,82.7 655.6,151.4 
			636.9,151.4 636.9,153.8 677.7,153.8 677.7,151.4 		"/>
		<linearGradient id="SVGID_5_" gradientUnits="userSpaceOnUse" x1="683.6974" y1="73.8758" x2="683.6974" y2="162.2383">
			<stop  offset="0" style="stop-color:#525152"/>
			<stop  offset="0.2691" style="stop-color:#424041"/>
			<stop  offset="0.8011" style="stop-color:#181314"/>
			<stop  offset="1" style="stop-color:#070102"/>
		</linearGradient>
		<polygon class="st3" points="670.8,116.4 699.2,80.1 695.6,80.1 667.4,116.5 696.1,153.8 700,153.8 		"/>
		<linearGradient id="SVGID_6_" gradientUnits="userSpaceOnUse" x1="725.9454" y1="73.876" x2="725.9454" y2="162.238">
			<stop  offset="0" style="stop-color:#525152"/>
			<stop  offset="0.2691" style="stop-color:#424041"/>
			<stop  offset="0.8011" style="stop-color:#181314"/>
			<stop  offset="1" style="stop-color:#070102"/>
		</linearGradient>
		<polygon class="st4" points="710.1,151.2 710.1,117.7 730.5,117.7 730.5,115.2 710.1,115.2 710.1,82.5 745.1,82.5 745.1,79.9 
			706.8,79.9 706.8,153.6 745.1,153.6 745.1,151.2 		"/>
	</g>
	<g>
		<linearGradient id="SVGID_7_" gradientUnits="userSpaceOnUse" x1="926.5532" y1="69.4222" x2="926.5532" y2="165.7933">
			<stop  offset="0" style="stop-color:#CDAB38"/>
			<stop  offset="0.135" style="stop-color:#FFFBCC"/>
			<stop  offset="0.2822" style="stop-color:#EED688"/>
			<stop  offset="0.3313" style="stop-color:#ECD382"/>
			<stop  offset="0.3956" style="stop-color:#E5CA72"/>
			<stop  offset="0.4679" style="stop-color:#DABC57"/>
			<stop  offset="0.5337" style="stop-color:#CDAB38"/>
			<stop  offset="0.5786" style="stop-color:#DBC262"/>
			<stop  offset="0.6264" style="stop-color:#E8D688"/>
			<stop  offset="0.6741" style="stop-color:#F2E6A6"/>
			<stop  offset="0.7209" style="stop-color:#F9F2BB"/>
			<stop  offset="0.7666" style="stop-color:#FEF9C8"/>
			<stop  offset="0.8098" style="stop-color:#FFFBCC"/>
			<stop  offset="0.9944" style="stop-color:#CDAB38"/>
		</linearGradient>
		<path class="st5" d="M1069.9,76.3l-52.8,75.6v-23.7h-10.1v19.5h-28.2l37.1-62.1v-9.3h-77.7v10.3h18.6l0,51.3l-41.5-61.6h-10.9v29
			c-0.5-1.5-1-2.9-1.6-4.4c-2.2-4.9-5.3-9.3-9-12.9c-3.8-3.6-8.2-6.5-13.2-8.6c-5-2.1-10.4-3.1-16-3.1c-5.7,0-11.1,1.1-16.1,3.2
			c-5,2.1-9.4,5-13.1,8.7c-3.7,3.7-6.7,8.1-8.9,13.1c-2.2,5-3.3,10.4-3.3,16.1c0,0.8,0,1.6,0.1,2.5c-1.9-2.4-4.2-4.3-7-5.8
			c2-1.8,3.6-3.7,4.7-5.6c1.6-2.6,2.4-5.9,2.4-9.7c0-1.5-0.1-3-0.4-4.4c-0.3-1.5-0.7-2.9-1.3-4.2l0,0c-1.1-2.6-2.6-4.8-4.4-6.6
			c-1.8-1.8-3.9-3.2-6.1-4.3c-2.2-1.1-4.7-1.8-7.2-2.3c-2.5-0.4-5-0.5-7.6-0.5l-21.1,0v10.1h19.8c1.3,0,2.6,0.1,4.1,0.2
			c1.4,0.1,2.8,0.3,4.1,0.6c1.3,0.3,2.5,0.7,3.6,1.3c1,0.5,2,1.3,2.9,2.3c2,2.2,3,4.7,3,7.6c0,1.9-0.5,3.8-1.5,5.6
			c-1,1.7-2.4,3.1-4.2,4.1c-1.8,1-3.8,1.6-5.8,1.7c-2.2,0.2-4.5,0.3-6.7,0.3h-19.3v10.3h19c2.6,0,5.2,0.1,7.7,0.2
			c2.4,0.1,4.7,0.6,6.8,1.5c2.4,1,4.5,2.6,6,4.7c1.5,2.1,2.3,4.4,2.3,7c0,2.5-0.6,4.9-1.9,7.1c-1.3,2.2-3,3.7-5.4,4.7
			c-2.2,1-4.5,1.5-6.8,1.7c-2.4,0.2-4.9,0.3-7.3,0.3h-20.4v10h23c1.8,0,3.6,0,5.3-0.1c1.7-0.1,3.4-0.3,5.1-0.5
			c1.7-0.3,3.3-0.8,4.9-1.4c1.6-0.6,3.2-1.5,4.8-2.5c3.2-2,5.7-4.9,7.3-8.4c1.3-2.9,2.1-5.9,2.3-9c2.1,3.9,4.7,7.4,7.9,10.4
			c3.8,3.6,8.2,6.5,13.1,8.5c5,2.1,10.3,3.1,15.7,3.1c5.6,0,11-1.1,16-3.1c5-2.1,9.4-5,13.2-8.7c3.8-3.7,6.8-8,9-12.9
			c0.6-1.4,1.2-2.9,1.6-4.3v29.1h11l0-62.6l42.2,62.6h69l40.7-59.3l0,59.3h10.9V76.3H1069.9z M892.9,128.9c-1.7,3.7-3.9,7-6.7,9.8
			c-2.8,2.8-6.1,5-9.9,6.6c-3.7,1.6-7.7,2.4-11.9,2.4c-4.2,0-8.1-0.8-11.8-2.4c-3.7-1.6-7-3.8-9.8-6.5c-2.8-2.7-5.1-6-6.7-9.7
			c-1.6-3.6-2.5-7.6-2.5-11.7c0-4.2,0.8-8.3,2.4-12.1c1.6-3.8,3.8-7.1,6.6-10c2.8-2.8,6.1-5.1,9.8-6.7c3.7-1.6,7.8-2.5,12.1-2.5
			c4.2,0,8.2,0.8,12,2.4c3.7,1.6,7.1,3.9,9.9,6.7c2.8,2.8,5.1,6.1,6.7,9.9c1.6,3.7,2.4,7.7,2.4,11.9
			C895.4,121.2,894.5,125.2,892.9,128.9z M975.9,106.2V86.7h27l-35.1,58.6v-39.1H975.9z"/>
		<linearGradient id="SVGID_8_" gradientUnits="userSpaceOnUse" x1="801.4479" y1="73.8759" x2="801.4479" y2="162.2381">
			<stop  offset="0" style="stop-color:#525152"/>
			<stop  offset="0.2691" style="stop-color:#424041"/>
			<stop  offset="0.8011" style="stop-color:#181314"/>
			<stop  offset="1" style="stop-color:#070102"/>
		</linearGradient>
		<path class="st6" d="M820.9,123.3c-2-3-4.9-5.2-8.4-6.7l-3.7-1.5l3.1-2.5c2.5-2,4.4-4.1,5.7-6.2c1.2-2,1.9-4.6,1.9-7.7
			c0-1.3-0.1-2.5-0.3-3.8c-0.2-1.2-0.6-2.3-1-3.3l0,0l0,0c-0.9-2.1-2.1-3.9-3.6-5.4c-1.5-1.5-3.2-2.7-5.1-3.6c-1.9-0.9-4-1.6-6.2-2
			c-2.3-0.4-4.6-0.6-7-0.6h-17.3v2.6h16c1.4,0,2.8,0.1,4.3,0.2c1.6,0.1,3.1,0.3,4.7,0.7c1.6,0.4,3.1,0.9,4.5,1.6
			c1.5,0.8,2.8,1.8,3.9,3.1c2.7,2.9,4,6.4,4,10.2c0,2.6-0.7,5.1-2,7.5c-1.4,2.3-3.2,4.2-5.6,5.5c-2.3,1.3-4.8,2-7.4,2.2
			c-2.3,0.2-4.7,0.3-7,0.3h-15.5v2.6H794c2.6,0,5.2,0.1,7.9,0.2c2.9,0.1,5.6,0.7,8.1,1.8c3.1,1.3,5.7,3.3,7.6,6
			c2,2.8,3.1,5.9,3.1,9.3c0,3.2-0.8,6.2-2.4,9c-1.7,2.9-4.1,5-7.2,6.3c-2.6,1.1-5.3,1.8-8.1,2c-2.5,0.2-5.1,0.3-7.6,0.3h-16.6v2.4
			h19.2c1.8,0,3.5,0,5.1-0.1c1.6-0.1,3.1-0.2,4.5-0.5c1.4-0.2,2.8-0.6,4.2-1.2c1.4-0.5,2.8-1.3,4.2-2.2c2.6-1.6,4.6-3.9,5.9-6.8
			c1.4-3,2-6.1,2-9.3C824,129.8,823,126.3,820.9,123.3z"/>
		<linearGradient id="SVGID_9_" gradientUnits="userSpaceOnUse" x1="864.5294" y1="73.8758" x2="864.5294" y2="162.2383">
			<stop  offset="0" style="stop-color:#525152"/>
			<stop  offset="0.2691" style="stop-color:#424041"/>
			<stop  offset="0.8011" style="stop-color:#181314"/>
			<stop  offset="1" style="stop-color:#070102"/>
		</linearGradient>
		<path class="st7" d="M899.2,131.3c2-4.4,3-9.3,3-14.3c0-5.1-1-10-3-14.4c-2-4.5-4.8-8.4-8.2-11.7c-3.4-3.3-7.5-5.9-12-7.8
			c-4.5-1.9-9.4-2.8-14.5-2.8c-5.2,0-10.1,1-14.6,2.9c-4.5,1.9-8.6,4.6-12,7.9c-3.4,3.3-6.1,7.3-8.1,11.8c-2,4.5-2.9,9.4-2.9,14.6
			c0,5,1,9.8,3.1,14.2c2.1,4.4,4.8,8.4,8.3,11.6c3.4,3.3,7.5,5.9,12,7.8c4.5,1.9,9.3,2.8,14.2,2.8c5.1,0,10-1,14.5-2.8
			c4.5-1.9,8.6-4.5,12-7.9C894.4,139.8,897.1,135.8,899.2,131.3z M877.8,148.8c-4.2,1.8-8.7,2.7-13.4,2.7c-4.7,0-9.2-0.9-13.3-2.7
			c-4.1-1.8-7.8-4.2-11-7.3c-3.1-3.1-5.7-6.7-7.5-10.8c-1.9-4.1-2.8-8.6-2.8-13.3c0-4.7,0.9-9.3,2.7-13.6c1.8-4.2,4.3-8,7.4-11.2
			c3.1-3.1,6.8-5.7,11-7.5c4.2-1.9,8.8-2.8,13.6-2.8c4.7,0,9.3,0.9,13.5,2.7c4.2,1.8,7.9,4.3,11,7.5c3.1,3.1,5.7,6.9,7.5,11
			c1.8,4.2,2.7,8.7,2.7,13.4c0,4.7-0.9,9.3-2.8,13.5c-1.9,4.2-4.4,7.9-7.5,11C885.7,144.6,882,147.1,877.8,148.8z"/>
		<linearGradient id="SVGID_10_" gradientUnits="userSpaceOnUse" x1="935.9995" y1="73.8758" x2="935.9995" y2="162.2383">
			<stop  offset="0" style="stop-color:#525152"/>
			<stop  offset="0.2691" style="stop-color:#424041"/>
			<stop  offset="0.8011" style="stop-color:#181314"/>
			<stop  offset="1" style="stop-color:#070102"/>
		</linearGradient>
		<polygon class="st8" points="942,82.8 960.5,82.8 960.5,150.4 913.2,80.1 908.1,80.1 908.1,153.8 911.5,153.8 911.4,82.6 
			959.5,153.8 963.9,153.8 963.9,80.1 942,80.1 		"/>
		<linearGradient id="SVGID_11_" gradientUnits="userSpaceOnUse" x1="991.345" y1="73.876" x2="991.345" y2="162.2382">
			<stop  offset="0" style="stop-color:#525152"/>
			<stop  offset="0.2691" style="stop-color:#424041"/>
			<stop  offset="0.8011" style="stop-color:#181314"/>
			<stop  offset="1" style="stop-color:#070102"/>
		</linearGradient>
		<polygon class="st9" points="1010.7,151.5 972,151.5 1012,84.5 1012,80.4 969.4,80.4 969.4,102.4 972,102.4 972,82.9 1009.6,82.9 
			969.4,149.9 969.4,153.9 1013.3,153.9 1013.3,132 1010.7,132 		"/>
		<linearGradient id="SVGID_12_" gradientUnits="userSpaceOnUse" x1="1047.3429" y1="73.8758" x2="1047.3429" y2="162.2382">
			<stop  offset="0" style="stop-color:#525152"/>
			<stop  offset="0.2691" style="stop-color:#424041"/>
			<stop  offset="0.8011" style="stop-color:#181314"/>
			<stop  offset="1" style="stop-color:#070102"/>
		</linearGradient>
		<polygon class="st10" points="1020.5,153.7 1024.5,153.7 1070.9,86.1 1071,153.7 1074.2,153.7 1074.2,80.1 1071.9,80.1 		"/>
	</g>
</g>
</svg>
