<?xml version="1.0" encoding="utf-8"?>
<!-- Generator: Adobe Illustrator 21.1.0, SVG Export Plug-In . SVG Version: 6.00 Build 0)  -->
<svg version="1.1" id="Layer_1" xmlns="http://www.w3.org/2000/svg" xmlns:xlink="http://www.w3.org/1999/xlink" x="0px" y="0px"
	 viewBox="0 0 931.2 137" style="enable-background:new 0 0 931.2 137;" xml:space="preserve">
<style type="text/css">
	.st0{fill:url(#SVGID_1_);stroke:#CDAB38;stroke-width:0.15;}
	.st1{fill:url(#SVGID_2_);}
	.st2{fill:url(#SVGID_3_);}
	.st3{fill:url(#SVGID_4_);}
	.st4{fill:url(#SVGID_5_);}
	.st5{fill:url(#SVGID_6_);stroke:#CDAB38;stroke-width:0.15;}
	.st6{fill:url(#SVGID_7_);}
	.st7{fill:url(#SVGID_8_);}
	.st8{fill:url(#SVGID_9_);}
	.st9{fill:url(#SVGID_10_);}
	.st10{fill:url(#SVGID_11_);}
</style>
<g>
	<g>
		
			<linearGradient id="SVGID_1_" gradientUnits="userSpaceOnUse" x1="227.4752" y1="138.6258" x2="227.4752" y2="5.0814" gradientTransform="matrix(1 0 0 -1 0 138.6511)">
			<stop  offset="0" style="stop-color:#CDAB38"/>
			<stop  offset="0.135" style="stop-color:#FFFBCC"/>
			<stop  offset="0.2822" style="stop-color:#EED688"/>
			<stop  offset="0.3313" style="stop-color:#ECD382"/>
			<stop  offset="0.3956" style="stop-color:#E5CA72"/>
			<stop  offset="0.4679" style="stop-color:#DABC57"/>
			<stop  offset="0.5337" style="stop-color:#CDAB38"/>
			<stop  offset="0.5786" style="stop-color:#DBC262"/>
			<stop  offset="0.6264" style="stop-color:#E8D688"/>
			<stop  offset="0.6741" style="stop-color:#F2E6A6"/>
			<stop  offset="0.7209" style="stop-color:#F9F2BB"/>
			<stop  offset="0.7666" style="stop-color:#FEF9C8"/>
			<stop  offset="0.8098" style="stop-color:#FFFBCC"/>
			<stop  offset="0.9944" style="stop-color:#CDAB38"/>
		</linearGradient>
		<path class="st0" d="M391.5,23.9V9.6h-79.8l-44.8,57.8V24.2h27.2V9.4h-82.9l-50.3,72.4V9.4h-15.3L63.4,127h19.1l62.3-90.8V127h3.5
			l62.3-90.8V127h83.3v-14.5h-27.2V67.7l45.5,59.3h79.1v-14.9h-50.6V74.6h29.4V60h-29.1V23.9H391.5z M251.1,112.5h-24.9V24.2h24.9
			V112.5z M285.5,67.4l39.6-50.3v101.1L285.5,67.4z"/>
		
			<linearGradient id="SVGID_2_" gradientUnits="userSpaceOnUse" x1="147.3715" y1="132.7463" x2="147.3715" y2="4.9818" gradientTransform="matrix(1 0 0 -1 0 138.6511)">
			<stop  offset="0" style="stop-color:#525152"/>
			<stop  offset="0.2691" style="stop-color:#424041"/>
			<stop  offset="0.8011" style="stop-color:#181314"/>
			<stop  offset="1" style="stop-color:#070102"/>
		</linearGradient>
		<polygon class="st1" points="155.3,99.5 155.3,14.9 148.3,14.9 74,121.5 79.6,121.5 150.3,18.5 150.5,114.4 216.3,18.5 
			216.3,121.5 220.8,121.5 220.8,14.9 214,14.9 		"/>
		
			<linearGradient id="SVGID_3_" gradientUnits="userSpaceOnUse" x1="259.0684" y1="132.7461" x2="259.0684" y2="4.9815" gradientTransform="matrix(1 0 0 -1 0 138.6511)">
			<stop  offset="0" style="stop-color:#525152"/>
			<stop  offset="0.2691" style="stop-color:#424041"/>
			<stop  offset="0.8011" style="stop-color:#181314"/>
			<stop  offset="1" style="stop-color:#070102"/>
		</linearGradient>
		<polygon class="st2" points="261.4,118 261.4,18.7 288.6,18.7 288.6,14.8 229.6,14.8 229.6,18.7 256.6,18.7 256.6,118 229.6,118 
			229.6,121.5 288.6,121.5 288.6,118 		"/>
		
			<linearGradient id="SVGID_4_" gradientUnits="userSpaceOnUse" x1="297.2404" y1="132.7463" x2="297.2404" y2="4.9818" gradientTransform="matrix(1 0 0 -1 0 138.6511)">
			<stop  offset="0" style="stop-color:#525152"/>
			<stop  offset="0.2691" style="stop-color:#424041"/>
			<stop  offset="0.8011" style="stop-color:#181314"/>
			<stop  offset="1" style="stop-color:#070102"/>
		</linearGradient>
		<polygon class="st3" points="278.6,67.4 319.7,14.9 314.4,14.9 273.7,67.5 315.2,121.5 320.8,121.5 		"/>
		
			<linearGradient id="SVGID_5_" gradientUnits="userSpaceOnUse" x1="358.3302" y1="132.746" x2="358.3302" y2="4.9822" gradientTransform="matrix(1 0 0 -1 0 138.6511)">
			<stop  offset="0" style="stop-color:#525152"/>
			<stop  offset="0.2691" style="stop-color:#424041"/>
			<stop  offset="0.8011" style="stop-color:#181314"/>
			<stop  offset="1" style="stop-color:#070102"/>
		</linearGradient>
		<polygon class="st4" points="335.4,117.7 335.4,69.3 364.9,69.3 364.9,65.7 335.4,65.7 335.4,18.4 386,18.4 386,14.6 330.6,14.6 
			330.6,121.2 386,121.2 386,117.7 		"/>
	</g>
	<g>
		
			<linearGradient id="SVGID_6_" gradientUnits="userSpaceOnUse" x1="648.7418" y1="139.1858" x2="648.7418" y2="-0.1584" gradientTransform="matrix(1 0 0 -1 0 138.6511)">
			<stop  offset="0" style="stop-color:#CDAB38"/>
			<stop  offset="0.135" style="stop-color:#FFFBCC"/>
			<stop  offset="0.2822" style="stop-color:#EED688"/>
			<stop  offset="0.3313" style="stop-color:#ECD382"/>
			<stop  offset="0.3956" style="stop-color:#E5CA72"/>
			<stop  offset="0.4679" style="stop-color:#DABC57"/>
			<stop  offset="0.5337" style="stop-color:#CDAB38"/>
			<stop  offset="0.5786" style="stop-color:#DBC262"/>
			<stop  offset="0.6264" style="stop-color:#E8D688"/>
			<stop  offset="0.6741" style="stop-color:#F2E6A6"/>
			<stop  offset="0.7209" style="stop-color:#F9F2BB"/>
			<stop  offset="0.7666" style="stop-color:#FEF9C8"/>
			<stop  offset="0.8098" style="stop-color:#FFFBCC"/>
			<stop  offset="0.9944" style="stop-color:#CDAB38"/>
		</linearGradient>
		<path class="st5" d="M855.7,9.4l-76.3,109.3V84.5h-14.6v28.2h-40.8l53.6-89.8V9.4H665.2v14.9h26.9v74.2l-60-89.1h-15.8v41.9
			c-0.7-2.2-1.4-4.2-2.3-6.4c-3.2-7.1-7.7-13.4-13-18.7c-5.5-5.2-11.9-9.4-19.1-12.4s-15-4.5-23.1-4.5c-8.2,0-16,1.6-23.3,4.6
			s-13.6,7.2-18.9,12.6c-5.3,5.3-9.7,11.7-12.9,18.9s-4.8,15-4.8,23.3c0,1.2,0,2.3,0.1,3.6c-2.7-3.5-6.1-6.2-10.1-8.4
			c2.9-2.6,5.2-5.3,6.8-8.1c2.3-3.8,3.5-8.5,3.5-14c0-2.2-0.1-4.3-0.6-6.4c-0.4-2.2-1-4.2-1.9-6.1l0,0c-1.6-3.8-3.8-6.9-6.4-9.5
			c-2.6-2.6-5.6-4.6-8.8-6.2c-3.2-1.6-6.8-2.6-10.4-3.3c-3.6-0.6-7.2-0.7-11-0.7h-30.5v14.6h28.6c1.9,0,3.8,0.1,5.9,0.3
			c2,0.1,4,0.4,5.9,0.9c1.9,0.4,3.6,1,5.2,1.9c1.4,0.7,2.9,1.9,4.2,3.3c2.9,3.2,4.3,6.8,4.3,11c0,2.7-0.7,5.5-2.2,8.1
			c-1.4,2.5-3.5,4.5-6.1,5.9c-2.6,1.4-5.5,2.3-8.4,2.5c-3.2,0.3-6.5,0.4-9.7,0.4h-27.9v14.9h27.5c3.8,0,7.5,0.1,11.1,0.3
			c3.5,0.1,6.8,0.9,9.8,2.2c3.5,1.4,6.5,3.8,8.7,6.8c2.2,3,3.3,6.4,3.3,10.1c0,3.6-0.9,7.1-2.7,10.3c-1.9,3.2-4.3,5.3-7.8,6.8
			c-3.2,1.4-6.5,2.2-9.8,2.5c-3.5,0.3-7.1,0.4-10.6,0.4h-29.5v14.5h33.3c2.6,0,5.2,0,7.7-0.1s4.9-0.4,7.4-0.7c2.5-0.4,4.8-1.2,7.1-2
			c2.3-0.9,4.6-2.2,6.9-3.6c4.6-2.9,8.2-7.1,10.6-12.1c1.9-4.2,3-8.5,3.3-13c3,5.6,6.8,10.7,11.4,15c5.5,5.2,11.9,9.4,18.9,12.3
			c7.2,3,14.9,4.5,22.7,4.5c8.1,0,15.9-1.6,23.1-4.5c7.2-3,13.6-7.2,19.1-12.6c5.5-5.3,9.8-11.6,13-18.7c0.9-2,1.7-4.2,2.3-6.2v42.1
			h15.9V37l61,90.5h99.8L852,41.8v85.7h15.8V9.4H855.7z M599.7,85.5c-2.5,5.3-5.6,10.1-9.7,14.2s-8.8,7.2-14.3,9.5
			c-5.3,2.3-11.1,3.5-17.2,3.5c-6.1,0-11.7-1.2-17.1-3.5c-5.3-2.3-10.1-5.5-14.2-9.4c-4-3.9-7.4-8.7-9.7-14
			c-2.3-5.2-3.6-11-3.6-16.9c0-6.1,1.2-12,3.5-17.5c2.3-5.5,5.5-10.3,9.5-14.5c4-4,8.8-7.4,14.2-9.7c5.3-2.3,11.3-3.6,17.5-3.6
			c6.1,0,11.9,1.2,17.4,3.5c5.3,2.3,10.3,5.6,14.3,9.7c4,4,7.4,8.8,9.7,14.3c2.3,5.3,3.5,11.1,3.5,17.2
			C603.3,74.3,602,80.1,599.7,85.5z M719.7,52.6V24.4h39L708,109.2V52.6C708,52.6,719.7,52.6,719.7,52.6z"/>
		
			<linearGradient id="SVGID_7_" gradientUnits="userSpaceOnUse" x1="467.3571" y1="132.7461" x2="467.3571" y2="4.9821" gradientTransform="matrix(1 0 0 -1 0 138.6511)">
			<stop  offset="0" style="stop-color:#525152"/>
			<stop  offset="0.2691" style="stop-color:#424041"/>
			<stop  offset="0.8011" style="stop-color:#181314"/>
			<stop  offset="1" style="stop-color:#070102"/>
		</linearGradient>
		<path class="st6" d="M495.6,77.4c-2.9-4.3-7.1-7.5-12.1-9.7l-5.3-2.2l4.5-3.6c3.6-2.9,6.4-5.9,8.2-9c1.7-2.9,2.7-6.7,2.7-11.1
			c0-1.9-0.1-3.6-0.4-5.5c-0.3-1.7-0.9-3.3-1.4-4.8l0,0l0,0c-1.3-3-3-5.6-5.2-7.8c-2.2-2.2-4.6-3.9-7.4-5.2c-2.7-1.3-5.8-2.3-9-2.9
			c-3.3-0.6-6.7-0.9-10.1-0.9h-25v3.8h23.1c2,0,4,0.1,6.2,0.3c2.3,0.1,4.5,0.4,6.8,1c2.3,0.6,4.5,1.3,6.5,2.3c2.2,1.2,4,2.6,5.6,4.5
			c3.9,4.2,5.8,9.3,5.8,14.7c0,3.8-1,7.4-2.9,10.8c-2,3.3-4.6,6.1-8.1,8c-3.3,1.9-6.9,2.9-10.7,3.2c-3.3,0.3-6.8,0.4-10.1,0.4h-22.4
			v3.8h21.8c3.8,0,7.5,0.1,11.4,0.3c4.2,0.1,8.1,1,11.7,2.6c4.5,1.9,8.2,4.8,11,8.7c2.9,4,4.5,8.5,4.5,13.4c0,4.6-1.2,9-3.5,13
			c-2.5,4.2-5.9,7.2-10.4,9.1c-3.8,1.6-7.7,2.6-11.7,2.9c-3.6,0.3-7.4,0.4-11,0.4h-24v3.5h27.8c2.6,0,5.1,0,7.4-0.1
			c2.3-0.1,4.5-0.3,6.5-0.7c2-0.3,4-0.9,6.1-1.7c2-0.7,4-1.9,6.1-3.2c3.8-2.3,6.7-5.6,8.5-9.8c2-4.3,2.9-8.8,2.9-13.4
			C500.1,86.8,498.7,81.7,495.6,77.4z"/>
		
			<linearGradient id="SVGID_8_" gradientUnits="userSpaceOnUse" x1="558.7338" y1="132.7463" x2="558.7338" y2="4.9818" gradientTransform="matrix(1 0 0 -1 0 138.6511)">
			<stop  offset="0" style="stop-color:#525152"/>
			<stop  offset="0.2691" style="stop-color:#424041"/>
			<stop  offset="0.8011" style="stop-color:#181314"/>
			<stop  offset="1" style="stop-color:#070102"/>
		</linearGradient>
		<path class="st7" d="M608.8,88.9c2.9-6.4,4.3-13.4,4.3-20.7c0-7.4-1.4-14.5-4.3-20.8c-2.9-6.5-6.9-12.1-11.9-16.9
			c-4.9-4.8-10.8-8.5-17.4-11.3s-13.6-4-21-4c-7.5,0-14.6,1.4-21.1,4.2c-6.5,2.7-12.4,6.7-17.4,11.4s-8.8,10.6-11.7,17.1
			c-2.9,6.5-4.2,13.6-4.2,21.1c0,7.2,1.4,14.2,4.5,20.5s6.9,12.1,12,16.8c4.9,4.8,10.8,8.5,17.4,11.3c6.5,2.7,13.4,4,20.5,4
			c7.4,0,14.5-1.4,21-4c6.5-2.7,12.4-6.5,17.4-11.4C601.9,101.2,605.8,95.4,608.8,88.9z M577.9,114.2c-6.1,2.6-12.6,3.9-19.4,3.9
			c-6.8,0-13.3-1.3-19.2-3.9c-5.9-2.6-11.3-6.1-15.9-10.6c-4.5-4.5-8.2-9.7-10.8-15.6c-2.7-5.9-4-12.4-4-19.2
			c0-6.8,1.3-13.4,3.9-19.7c2.6-6.1,6.2-11.6,10.7-16.2c4.5-4.5,9.8-8.2,15.9-10.8c6.1-2.7,12.7-4,19.7-4c6.8,0,13.4,1.3,19.5,3.9
			c6.1,2.6,11.4,6.2,15.9,10.8c4.5,4.5,8.2,10,10.8,15.9c2.6,6.1,3.9,12.6,3.9,19.4c0,6.8-1.3,13.4-4,19.5
			c-2.7,6.1-6.4,11.4-10.8,15.9C589.3,108.2,584,111.8,577.9,114.2z"/>
		
			<linearGradient id="SVGID_9_" gradientUnits="userSpaceOnUse" x1="662.0443" y1="132.7463" x2="662.0443" y2="4.9818" gradientTransform="matrix(1 0 0 -1 0 138.6511)">
			<stop  offset="0" style="stop-color:#525152"/>
			<stop  offset="0.2691" style="stop-color:#424041"/>
			<stop  offset="0.8011" style="stop-color:#181314"/>
			<stop  offset="1" style="stop-color:#070102"/>
		</linearGradient>
		<polygon class="st8" points="670.7,18.8 697.5,18.8 697.5,116.6 629.1,14.9 621.7,14.9 621.7,121.5 626.6,121.5 626.5,18.5 
			696,121.5 702.4,121.5 702.4,14.9 670.7,14.9 		"/>
		
			<linearGradient id="SVGID_10_" gradientUnits="userSpaceOnUse" x1="742.0756" y1="132.746" x2="742.0756" y2="4.9819" gradientTransform="matrix(1 0 0 -1 0 138.6511)">
			<stop  offset="0" style="stop-color:#525152"/>
			<stop  offset="0.2691" style="stop-color:#424041"/>
			<stop  offset="0.8011" style="stop-color:#181314"/>
			<stop  offset="1" style="stop-color:#070102"/>
		</linearGradient>
		<polygon class="st9" points="770.1,118.1 714.1,118.1 771.9,21.3 771.9,15.3 710.3,15.3 710.3,47.1 714.1,47.1 714.1,19 768.5,19 
			710.3,115.8 710.3,121.6 773.8,121.6 773.8,89.9 770.1,89.9 		"/>
		
			<linearGradient id="SVGID_11_" gradientUnits="userSpaceOnUse" x1="823.0467" y1="132.7463" x2="823.0467" y2="4.9819" gradientTransform="matrix(1 0 0 -1 0 138.6511)">
			<stop  offset="0" style="stop-color:#525152"/>
			<stop  offset="0.2691" style="stop-color:#424041"/>
			<stop  offset="0.8011" style="stop-color:#181314"/>
			<stop  offset="1" style="stop-color:#070102"/>
		</linearGradient>
		<polygon class="st10" points="784.2,121.3 790,121.3 857.1,23.6 857.2,121.3 861.9,121.3 861.9,14.9 858.5,14.9 		"/>
	</g>
</g>
</svg>
